<?xml version="1.0" encoding="utf-8"?>
<!-- Generator: Adobe Illustrator 19.1.0, SVG Export Plug-In . SVG Version: 6.00 Build 0)  -->
<svg version="1.1" id="图层_1" xmlns="http://www.w3.org/2000/svg" xmlns:xlink="http://www.w3.org/1999/xlink" x="0px" y="0px"
	 viewBox="0 0 445.575 175.506" enable-background="new 0 0 445.575 175.506" xml:space="preserve">
<rect x="35.103" y="36.062" fill="#EFEFEF" width="153.288" height="40.104"/>
<line fill="none" stroke="#231815" stroke-miterlimit="10" x1="89.487" y1="43.637" x2="89.487" y2="57.139"/>
<text transform="matrix(1 0 0 1 41.1031 54.3112)" font-family="'Seravek-Light'" font-size="13px">textarea</text>
<rect x="25.103" y="26.062" fill="none" stroke="#2EA7E0" stroke-miterlimit="10" stroke-dasharray="5" width="176" height="64"/>
<text transform="matrix(1 0 0 1 92.1031 102.0619)" fill="#2EA7E0" font-family="'Seravek-Light'" font-size="13px">TargetResourceItem</text>
<path fill="#444444" d="M231,38.066h2.58v1.72l3.441-2.58l-3.441-2.58v1.72h-3.441c-0.516,0-0.86,0.344-0.86,0.86v5.161h-1.72v6.021
	h10.322v-6.021H231V38.066z"/>
<text transform="matrix(1 0 0 1 254.841 43.637)" fill="#F39800" font-family="'Seravek-Light'" font-size="13px">ButtonResourceItem</text>
<rect x="9.883" y="10.081" fill="none" stroke="#13AE67" stroke-miterlimit="10" width="423.409" height="151.376"/>
<text transform="matrix(1 0 0 1 377.0841 152.0617)" fill="#13AE67" font-family="'Seravek-Light'" font-size="13px">Resource</text>
<rect x="219" y="26.062" fill="none" stroke="#F39800" stroke-miterlimit="10" stroke-dasharray="5" width="26" height="31.077"/>
<polygon points="227,84.873 227,110 240.897,110 246.058,115.161 251.219,110 321.435,110 321.435,84.873 "/>
<text transform="matrix(1 0 0 1 233.5822 101.017)" fill="#FFFFFF" font-family="'Seravek-Light'" font-size="13px">Click to enable</text>
<rect x="219" y="77" fill="none" stroke="#E61673" stroke-miterlimit="10" stroke-dasharray="5" width="109" height="45"/>
<text transform="matrix(1 0 0 1 219.0002 141.0168)" fill="#E61673" font-family="'Seravek-Light'" font-size="13px">TooltipResourceItem</text>
</svg>
